# xmcd CD database file
#
# Track frame offsets:
#	150
#	14227
#	31615
#	52010
#	67405
#	86257
#	106877
#	125977
#	153680
#	170445
#	187680
#	202670
#	218802
#	236235
#	250437
#
# Disc length: 3601 seconds
#
# Revision: 0
# Processed by: cddbd v1.5.1PL0 Copyright (c) Steve Scherf et al.
# Submitted via: CDex 1.51
#
DISCID=d60e0f0f
DTITLE=Various Artist - 想い出のフォーク＆ポップス大全集 disc3
DYEAR=1900
DGENRE=
TTITLE0=冬の稲妻−アリス
TTITLE1=HERO（ヒーローになる時、それは今）−甲斐バンド
TTITLE2=サボテンの花−チューリップ
TTITLE3=君のひとみは10000ボルト−堀内孝雄
TTITLE4=東へ西へ−井上陽水
TTITLE5=港のヨーコ・ヨコハマ・ヨコスカ−ダウン・タウン・ブギウギ・バンド
TTITLE6=ANAK（息子）−杉田二郎
TTITLE7=外は白い雪の夜−吉田拓郎
TTITLE8=我が良き友よ−かまやつひろし
TTITLE9=冷たい雨−ハイ・ファイ・セット
TTITLE10=マイ・ピュア・レディ−尾崎亜美
TTITLE11=どうぞこのまま−丸山圭子
TTITLE12=東京−マイペース
TTITLE13=サクセス−ダウン・タウン・ブギウギ・バンド
TTITLE14=あんたのバラード−世良公則＆ツイスト
EXTD=
EXTT0=
EXTT1=
EXTT2=
EXTT3=
EXTT4=
EXTT5=
EXTT6=
EXTT7=
EXTT8=
EXTT9=
EXTT10=
EXTT11=
EXTT12=
EXTT13=
EXTT14=
PLAYORDER=
